<?xml version="1.0" encoding="UTF-8"?>
<svg id="_圖層_1" xmlns="http://www.w3.org/2000/svg" xmlns:xlink="http://www.w3.org/1999/xlink" version="1.1" viewBox="0 0 245 45">
  <!-- Generator: Adobe Illustrator 29.0.1, SVG Export Plug-In . SVG Version: 2.1.0 Build 192)  -->
  <defs>
    <style>
      .st0 {
        fill: none;
      }

      .st1 {
        fill: #e7211a;
      }

      .st2 {
        clip-path: url(#clippath);
      }
    </style>
    <clipPath id="clippath">
      <rect class="st0" x="55.7" y="8.2" width="187.5" height="22.9"/>
    </clipPath>
  </defs>
  <g id="Group_123">
    <g id="Group_25">
      <g class="st2">
        <g id="Group_1-2">
          <path id="Path_1-2" class="st1" d="M55.7,19.7c0-6.4,5.2-11.5,11.6-11.4h.1c2.3,0,4.6.7,6.5,1.9.8.6,1,1.7.5,2.5-.6.8-1.7,1-2.5.5-1.3-.9-2.9-1.4-4.5-1.4-4.4,0-8,3.5-8.1,7.8,0,4.4,3.7,7.9,8.1,7.8,1.6,0,3.2-.5,4.6-1.4.8-.6,2-.3,2.5.5.6.8.4,1.9-.5,2.5h0c-2,1.3-4.3,2.1-6.6,2-6.4,0-11.6-5-11.7-11.4h0"/>
          <path id="Path_2-2" class="st1" d="M80.3,28.9V10.6c0-1,.8-1.8,1.8-1.8s1.8.8,1.8,1.8v8.3h10.5v-8.3c0-1,.8-1.8,1.8-1.8s1.8.8,1.8,1.8v18.3c0,1-.8,1.8-1.8,1.8s-1.8-.8-1.8-1.8v-6.3h-10.5v6.3c0,1-.8,1.8-1.8,1.8s-1.8-.8-1.8-1.8"/>
          <path id="Path_3-2" class="st1" d="M102.2,28l9.4-18.2c.4-.9,1.5-1.2,2.4-.8.3.2.6.5.8.8l9.5,18.2c.5.9,0,2-.8,2.4-.9.5-2,0-2.4-.8l-7.8-15.1-7.8,15.1c-.4.9-1.5,1.2-2.4.8h0c-.9-.5-1.2-1.5-.8-2.4h0"/>
          <path id="Path_4-2" class="st1" d="M135.4,28.9V12.5h-6.3c-1,0-1.8-.8-1.8-1.8s.8-1.8,1.8-1.8h16.2c1,0,1.8.8,1.8,1.8s-.8,1.8-1.8,1.8h-6.3v16.4c0,1-.8,1.8-1.8,1.8s-1.8-.8-1.8-1.8"/>
          <path id="Path_5-2" class="st1" d="M151.7,28.9v-8.1c0-1,.7-1.8,1.7-1.9h10.9c1.7,0,3-1.5,2.9-3.2h0c.1-1.8-1.1-3.2-2.8-3.3h-10.8c-1,0-1.8-.7-1.9-1.7h0c0-1.1.8-1.9,1.8-1.9h10.8c3.5,0,6.5,2.8,6.5,6.3v.5c0,4.4-3.1,6.9-6.5,6.9h-9v6.3c0,1-.8,1.8-1.8,1.8s-1.8-.8-1.8-1.8"/>
          <path id="Path_6-2" class="st1" d="M176.4,28.9V10.6c0-1,.8-1.8,1.8-1.8s1.8.8,1.8,1.8v16.4h12.3c1,0,1.8.8,1.8,1.8s-.8,1.8-1.8,1.8h-14.1c-1,0-1.8-.8-1.8-1.8"/>
          <path id="Path_7-2" class="st1" d="M198.2,28l9.4-18.2c.4-.9,1.5-1.2,2.4-.8.3.2.6.5.8.8l9.5,18.2c.5.9,0,2-.8,2.4-.9.5-2,0-2.4-.8l-7.8-15.1-7.8,15.1c-.4.9-1.5,1.2-2.4.8h0c-.9-.5-1.2-1.5-.8-2.4h0"/>
          <path id="Path_8-2" class="st1" d="M231.5,28.9v-8.4l-7.7-8.6c-.6-.8-.5-1.9.3-2.5.7-.6,1.8-.5,2.4.1l6.8,7.6,6.8-7.6c.7-.7,1.8-.7,2.6,0,.7.7.7,1.7,0,2.4l-7.7,8.6v8.4c0,1-.8,1.8-1.8,1.8s-1.8-.8-1.8-1.8"/>
        </g>
      </g>
    </g>
    <path id="Path_43" class="st1" d="M23.5,23.3h21.6v14.7l-1.7-2.6h-19.8v-12.1h-.1ZM1.8,2.5v37.8l3.6-8.4h16.7v4.9h20.5l3.9,5.8v-20.7h-5.3V2.4H1.8Z"/>
  </g>
</svg>