<?xml version="1.0" encoding="utf-8"?>
<!-- Generator: Adobe Illustrator 24.0.0, SVG Export Plug-In . SVG Version: 6.00 Build 0)  -->
<svg version="1.1" id="Done" xmlns="http://www.w3.org/2000/svg" xmlns:xlink="http://www.w3.org/1999/xlink" x="0px" y="0px"
	 viewBox="0 0 136 20" style="enable-background:new 0 0 136 20;" xml:space="preserve">
<style type="text/css">
	.st0{fill-rule:evenodd;clip-rule:evenodd;fill:#FCFAFA;}
	.st1{fill:#FCFAFA;}
</style>
<g>
	<path class="st0" d="M20.1,5.8l1.4-3.5c0,0-4.8,1.8-7.7,1.8S8.7,3.2,8.7,3.2l0.5-1.3H5.3c0,0,0.6,3.2,1.7,4.6
		c1.7,2.2,3.3,2.7,3.3,2.7l1.1-0.7c0,0-0.9,0-0.9-1c0-0.5-0.3-1.6,1.6-1.7s2.7,0,2.7,0.9c0,0.8-1.4,1.9-3.1,4.5
		c-2.2,3.1-3.3,6.8-3.3,6.8h9.8c0,0-1.9-2.2-1.9-6s3.9-6.3,3.9-6.3L20.1,5.8z M17.9,10.3c-0.9,1.3-0.6,4-0.6,4s0.2-0.8,1.2-1.4
		c1.2-0.6,1.3,0,3.2-1.3c2-1.3,2.1-6.6,2.1-6.6s-0.7,1.6-2,2.7C20.8,8.4,18.7,8.9,17.9,10.3L17.9,10.3z M4.8,11.5
		c2,1.3,2.1,0.7,3.2,1.3c1.1,0.5,1.2,1.4,1.2,1.4s0.3-2.7-0.6-4c-0.9-1.3-3-1.8-4-2.6C3.3,6.6,2.6,5,2.6,5s0.1,5.3,2.1,6.6L4.8,11.5
		z M9.2,14.9c0,0-0.5-1.3-1.3-1.7s-1.8,0-2.5-0.2c-0.9-0.1-1.6-0.7-1.6-0.7s1.4,2.4,2.6,2.5s1.1-0.2,1.8-0.2c0.6,0,0.9,0.3,0.9,0.3
		L9.2,14.9z M18.7,13.3c-0.7,0.4-1.3,1.7-1.3,1.7s0.3-0.3,0.9-0.3c0.7,0,0.6,0.3,1.8,0.2c1.2-0.1,2.6-2.5,2.6-2.5S22,12.9,21.1,13
		c-0.7,0.1-1.7-0.2-2.5,0.2L18.7,13.3z"/>
	<path class="st1" d="M62.8,17h16.8v-2.7H62.8C62.8,14.3,62.8,17,62.8,17z M55.7,9.8H60V7.3H46.8v2.5h4.3v4.7h-4.8V17h14.4v-2.5
		h-4.9L55.7,9.8L55.7,9.8z M28,8.3h11l-3.9,6.4h-7.7l1.8,2.7H39l5.6-9.1V5.7H27.9v2.7L28,8.3z M78.8,5.5H63.4v2.7h15.4V5.5z
		 M86,12.7l-1.7-5.5h-4.4l1.7,5.5H86L86,12.7z M126.9,11.2h-0.5l3.5-3.5V5.5h-14.5v2.6h7.6l-9.4,9.1h6.4l3.5-3.3l3.5,3.3h6.4
		L126.9,11.2L126.9,11.2z M91.9,7.2l-1.2,2.5l-0.8-2.5h-4.4l1.7,5.5h2.1l-1,2.2h-7.5l2.1,2.5h8.9l4.6-10.2h-4.6H91.9z M114,7h-8
		l1.4-1.8h-5.9l-5.8,7.2h5.9l2.3-2.8h4.1l-4.1,4.9h-7.6l2.3,2.6h9.2l6.2-7.6V6.8V7z"/>
</g>
</svg>
