<?xml version="1.0" encoding="UTF-8"?>
<svg id="_圖層_1" xmlns="http://www.w3.org/2000/svg" xmlns:xlink="http://www.w3.org/1999/xlink" version="1.1" viewBox="0 0 168.6 28">
  <!-- Generator: Adobe Illustrator 29.0.1, SVG Export Plug-In . SVG Version: 2.1.0 Build 192)  -->
  <defs>
    <style>
      .st0 {
        fill: none;
      }

      .st1 {
        fill: #fff;
      }

      .st2 {
        clip-path: url(#clippath);
      }
    </style>
    <clipPath id="clippath">
      <rect class="st0" x="37.6" y="6" width="130.9" height="16"/>
    </clipPath>
  </defs>
  <g class="st2">
    <g id="Group_1">
      <path id="Path_1" class="st1" d="M37.6,14c0-4.4,3.7-8,8.1-8h0c1.6,0,3.2.5,4.5,1.3.6.4.7,1.2.3,1.8s-1.2.7-1.8.4h0c-.9-.6-2-.9-3.2-.9-3.1,0-5.6,2.4-5.6,5.5s2.6,5.5,5.6,5.5,2.3-.3,3.2-1c.6-.4,1.4-.2,1.8.3.4.6.2,1.4-.3,1.8h0c-1.4.9-3,1.4-4.6,1.4-4.5,0-8.1-3.5-8.2-7.9h0"/>
      <path id="Path_2" class="st1" d="M54.9,20.4V7.7c0-.7.6-1.2,1.3-1.2s1.2.6,1.2,1.2v5.8h7.3v-5.8c0-.7.6-1.2,1.3-1.2s1.2.6,1.2,1.2v12.8c0,.7-.6,1.2-1.3,1.2s-1.2-.6-1.2-1.2v-4.4h-7.3v4.4c0,.7-.6,1.2-1.3,1.2s-1.2-.6-1.2-1.2"/>
      <path id="Path_3" class="st1" d="M70.1,19.8l6.6-12.7c.3-.6,1.1-.9,1.7-.6.2,0,.4.3.6.6l6.6,12.7c.3.6,0,1.4-.6,1.7s-1.4,0-1.7-.6l-5.4-10.6-5.5,10.6c-.3.6-1.1.9-1.7.6h0c-.6-.3-.9-1.1-.6-1.7h0"/>
      <path id="Path_4" class="st1" d="M93.3,20.4v-11.5h-4.4c-.7,0-1.2-.6-1.2-1.3s.6-1.2,1.2-1.2h11.3c.7,0,1.3.5,1.3,1.2s-.5,1.3-1.2,1.3h-4.4v11.5c0,.7-.6,1.3-1.3,1.3s-1.3-.6-1.3-1.3"/>
      <path id="Path_5" class="st1" d="M104.7,20.4v-5.6c0-.7.5-1.3,1.2-1.3h7.6c1.2,0,2.1-1.1,2-2.2h0c0-1.2-.8-2.2-1.9-2.3h-7.6c-.7,0-1.3-.5-1.3-1.2h0c0-.8.6-1.3,1.3-1.3h7.6c2.5,0,4.5,1.9,4.5,4.4v.4c.2,2.5-1.7,4.7-4.2,4.8h-6.6v4.4c0,.7-.6,1.2-1.3,1.2s-1.2-.6-1.2-1.2"/>
      <path id="Path_6" class="st1" d="M121.9,20.4V7.7c0-.7.6-1.2,1.3-1.2s1.2.6,1.2,1.2v11.5h8.6c.7,0,1.3.5,1.3,1.2s-.5,1.3-1.2,1.3h-9.9c-.7,0-1.3-.6-1.3-1.3"/>
      <path id="Path_7" class="st1" d="M137.1,19.8l6.6-12.7c.3-.6,1.1-.9,1.7-.6.2,0,.4.3.6.6l6.6,12.7c.3.6,0,1.4-.6,1.7s-1.4,0-1.7-.6l-5.4-10.6-5.5,10.6c-.3.6-1.1.9-1.7.6h0c-.6-.3-.9-1.1-.6-1.7h0"/>
      <path id="Path_8" class="st1" d="M160.4,20.4v-5.9l-5.4-6c-.4-.5-.4-1.3.1-1.8.5-.4,1.3-.4,1.7,0l4.7,5.3,4.7-5.3c.5-.5,1.3-.6,1.8,0s.6,1.3.1,1.8l-5.4,6v5.9c0,.7-.6,1.3-1.3,1.3s-1.3-.6-1.3-1.3h0"/>
    </g>
  </g>
  <path id="Path_9" class="st1" d="M15.1,14.5h15.1v10.3l-1.2-1.8h-13.9v-8.5ZM0,0v26.4l2.5-5.9h11.7v3.4h14.3l2.7,4.1v-14.5h-3.7V0H0Z"/>
</svg>