<?xml version="1.0" encoding="UTF-8"?>
<svg id="_圖層_1" xmlns="http://www.w3.org/2000/svg" xmlns:xlink="http://www.w3.org/1999/xlink" version="1.1" viewBox="0 0 24 24">
  <!-- Generator: Adobe Illustrator 29.0.1, SVG Export Plug-In . SVG Version: 2.1.0 Build 192)  -->
  <defs>
    <style>
      .st0, .st1 {
        fill: none;
      }

      .st1 {
        stroke: #72c8d5;
        stroke-linecap: round;
        stroke-width: 2px;
      }

      .st2 {
        clip-path: url(#clippath);
      }
    </style>
    <clipPath id="clippath">
      <rect class="st0" x="2.3" y="2.1" width="20" height="20"/>
    </clipPath>
  </defs>
  <g class="st2">
    <g id="Mask_Group_2">
      <path id="link-alt-1-svgrepo-com" class="st1" d="M9.6,17.5c-.2.2-.4.3-.6.5-.9.5-2,.5-2.9,0-.5-.3-.9-.7-1.3-1.1s-.8-.8-1.1-1.3c-.5-.9-.5-2,0-2.9.3-.5.7-.9,1.1-1.3l2.7-2.7c.4-.4.8-.8,1.3-1.1.9-.5,2-.5,2.9,0,.5.3.9.7,1.3,1.1s.8.8,1.1,1.3c.5.9.5,2,0,2.9-.1.2-.3.4-.5.6M11,10.6c-.2.2-.3.4-.5.6-.5.9-.5,2,0,2.9.3.5.7.9,1.1,1.3s.8.8,1.3,1.1c.9.5,2,.5,2.9,0,.5-.3.9-.7,1.3-1.1l2.7-2.7c.4-.4.8-.8,1.1-1.3.5-.9.5-2,0-2.9-.3-.5-.7-.9-1.1-1.3s-.8-.8-1.3-1.1c-.9-.5-2-.5-2.9,0-.2.1-.4.3-.6.5"/>
    </g>
  </g>
</svg>