<?xml version="1.0" encoding="UTF-8"?>
<svg id="_圖層_1" data-name="圖層 1" xmlns="http://www.w3.org/2000/svg" viewBox="0 0 24 24">
  <defs>
    <style>
      .cls-1 {
        fill: red;
      }
    </style>
  </defs>
  <path id="Union_5" data-name="Union 5" class="cls-1" d="M17.44,23.5H4.11c-.13.02-.26-.02-.36-.1h0S.14,19.8.14,19.8H.14c-.09-.09-.14-.21-.14-.33H0v-10.4H0c0-.5.41-.91.91-.93h0s5.06,0,5.06,0V2.65h.02c0-1.18.94-2.14,2.12-2.15.76,0,1.47.42,1.84,1.08h0s3.65,6.32,3.65,6.32c.08.07.14.15.2.24h3.67s.03,0,.05,0c.52,0,.94.42.94.94h0v13.55h0c-.02.5-.43.89-.93.89-.03,0-.06,0-.09,0ZM1.12,19.48v-.02h-.01v.02ZM21.23,21.92h0c-.47-.02-.86-.38-.9-.85h-.02v-10.16h0c0-.5.41-.91.91-.93h0s1.78,0,1.78,0h.05c.52,0,.94.42.94.94h0v9.95s.01.09.01.13c0,.52-.42.94-.94.94h-1.84Z"/>
</svg>