<?xml version="1.0" encoding="UTF-8"?>
<svg id="_圖層_1" xmlns="http://www.w3.org/2000/svg" version="1.1" viewBox="0 0 24 24">
  <!-- Generator: Adobe Illustrator 29.0.1, SVG Export Plug-In . SVG Version: 2.1.0 Build 192)  -->
  <defs>
    <style>
      .st0, .st1 {
        fill: none;
      }

      .st2 {
        isolation: isolate;
      }

      .st3 {
        fill: #fff;
      }

      .st1 {
        stroke: #fff;
      }
    </style>
  </defs>
  <g id="Frame_109-2" class="st2">
    <path class="st0" d="M12,.8h0c6.2,0,11.2,5,11.2,11.2h0c0,6.2-5,11.2-11.2,11.2h0C5.8,23.2.8,18.2.8,12h0C.8,5.8,5.8.8,12,.8Z"/>
    <path class="st1" d="M12,.5h0c6.3,0,11.5,5.2,11.5,11.5h0c0,6.3-5.2,11.5-11.5,11.5h0C5.7,23.5.5,18.3.5,12h0C.5,5.7,5.7.5,12,.5Z"/>
  </g>
  <g>
    <g class="st2">
      <path class="st3" d="M6.7,15.5v-5.4l-1.2.3v-1.1l1.8-.8h.8v7h-1.4,0Z"/>
      <path class="st3" d="M12,15.6c-.5,0-.9,0-1.3-.2s-.7-.4-.9-.7-.3-.7-.3-1.1,0-.6.1-.7.2-.4.4-.6.4-.3.6-.4c-.3-.1-.6-.3-.7-.6-.2-.2-.2-.6-.2-.9s0-.6.2-.9.4-.5.8-.7.8-.2,1.3-.2.9,0,1.3.2.6.4.8.7.2.6.2.9,0,.6-.2.9-.4.4-.7.6c.2.1.4.2.6.4.2.2.3.4.4.6s.1.5.1.7c0,.4-.1.7-.4,1.1s-.6.6-.9.7c-.4.2-.8.2-1.3.2h.1ZM12,14.5c.4,0,.7-.1.9-.3s.3-.4.3-.7-.1-.6-.3-.8-.5-.3-.9-.3-.7.1-.9.3-.3.4-.3.8.1.6.3.7c.2.2.5.3.9.3ZM12,11.3c.3,0,.6,0,.8-.2s.2-.4.2-.7,0-.5-.2-.7c-.2-.2-.4-.2-.8-.2s-.6,0-.7.2c-.2.2-.2.4-.2.7s0,.5.2.7c.2.2.4.2.7.2Z"/>
    </g>
    <g class="st2">
      <path class="st3" d="M15.5,12.4v-.7h3v.7h-3ZM16.6,13.6v-2.9h.7v2.9h-.7Z"/>
    </g>
  </g>
</svg>