<?xml version="1.0" encoding="UTF-8"?>
<svg id="_圖層_1" xmlns="http://www.w3.org/2000/svg" version="1.1" viewBox="0 0 24 24">
  <!-- Generator: Adobe Illustrator 29.0.1, SVG Export Plug-In . SVG Version: 2.1.0 Build 192)  -->
  <defs>
    <style>
      .st0 {
        fill: #6cba43;
      }
    </style>
  </defs>
  <path class="st0" d="M21.4,7c.3,0,.5-.1.6-.4V2.3c0-.1-.1-.2-.3-.3h-4.4c-.2.1-.4.3-.4.6,0,.4.3.7.7.7h2l-3.5,3.5c-.3.3-.3.7,0,1,.3.3.7.3,1,0l3.5-3.5v2c0,.4.3.7.7.7Z"/>
  <path class="st0" d="M21.3,11.3c-.4,0-.7-4-.7.7s-3.9,8.6-8.6,8.6S3.4,16.7,3.4,12,7.3,3.4,12,3.4s.7-.3.7-.7,4.8-.7-.7-.7S2,6.5,2,12h0c0,5.5,4.4,10,9.9,10s10-4.5,10-10-.3-.7-.7-.7Z"/>
  <path class="st0" d="M11.3,16.5c0,.3.4.6.8.6.3,0,.6-.4.6-.8v-.2h.3c1.1,0,2-1,2-2.1,0-.9-.5-1.8-1.4-2l-.9-.3v-2.1c.5,0,.9.4.9,1,.1.3.4.6.8.6.3-.1.6.4.6-.8s-1-2.3-2.3-2.3v-.2c0-.3-.3-.6-.6-.6-.4,0-.8.2-.8.6v.2h-.3c-1.1,0-2,.9-2,2.1-.1.9.5,1.8,1.4,2l.9.3v2.1c-.5,0-.9-.5-.9-.9s-.3-.7-.7-.7-.7-.5-.7.7,1,2.3,2.3,2.3v.5ZM12.7,12.9l.5.2c.4.1.5.3.5.7s-.3.7-.7.7h-.3v-1.6ZM11,10.7c-.4-.1-.5-.2-.5-.7s.3-.7.7-.7h.3v1.6l-.5-.2Z"/>
</svg>