<?xml version="1.0" encoding="UTF-8"?>
<svg id="_圖層_1" xmlns="http://www.w3.org/2000/svg" xmlns:xlink="http://www.w3.org/1999/xlink" version="1.1" viewBox="0 0 24 24">
  <!-- Generator: Adobe Illustrator 29.0.1, SVG Export Plug-In . SVG Version: 2.1.0 Build 192)  -->
  <defs>
    <style>
      .st0 {
        fill: none;
      }

      .st1 {
        fill: #6cba43;
      }

      .st2 {
        clip-path: url(#clippath);
      }
    </style>
    <clipPath id="clippath">
      <path class="st0" d="M2.3,12.1C2.3,6.6,6.8,2.1,12.3,2.1s.7.3.7.7-.3.7-.7.7C7.6,3.5,3.7,7.4,3.7,12.1s3.9,8.6,8.6,8.6,8.6-3.9,8.6-8.6.3-.7.7-.7.7.3.7.7c0,5.5-4.5,10-10,10S2.4,17.6,2.4,12.1h0ZM11.6,16.3v-.2c-1.3,0-2.3-1.1-2.3-2.3s.3-.7.7-.7.7.3.7.7.4.9.9.9v-2.1l-.9-.3c-.9-.2-1.5-1.1-1.4-2,0-1.2.9-2.1,2-2.1h.3v-.2c0-.4.3-.7.6-.8.4,0,.7.3.8.6h0v.3c1.3,0,2.3,1.1,2.3,2.3s-.3.7-.6.8-.7-.3-.8-.6h0c0-.6-.4-1-.9-1v2.1l.9.3c.9.2,1.5,1.1,1.4,2,0,1.2-.9,2.1-2,2.1h-.3v.2c0,.4-.3.7-.6.8-.4,0-.7-.3-.8-.6h0c0-.1,0-.2,0-.2ZM13,14.6h.3c.4,0,.7-.3.7-.7s-.1-.6-.5-.7l-.5-.2v1.6h0ZM10.8,10.1c0,.5.1.6.5.7l.5.2v-1.6h-.3c-.4,0-.7.3-.7.7h0ZM17,8.1h-.3s-.1,0-.2-.1V4c0-.4.3-.7.7-.7s.7.3.7.7v2l3.4-3.5c.3-.2.7-.2,1,0,.2.3.2.6,0,.9l-3.5,3.5h2c.4,0,.7.4.6.8,0,.3-.3.6-.6.6h-3.7v-.2Z"/>
    </clipPath>
  </defs>
  <path class="st1" d="M2.3,12.1C2.3,6.6,6.8,2.1,12.3,2.1s.7.3.7.7-.3.7-.7.7C7.6,3.5,3.7,7.4,3.7,12.1s3.9,8.6,8.6,8.6,8.6-3.9,8.6-8.6.3-.7.7-.7.7.3.7.7c0,5.5-4.5,10-10,10S2.4,17.6,2.4,12.1h0ZM11.6,16.3v-.2h0c-1.3,0-2.3-1.1-2.3-2.3s.3-.7.7-.7.7.3.7.7.4.9.9.9h0v-2.1l-.9-.3c-.9-.2-1.5-1.1-1.4-2,0-1.2.9-2.1,2-2.1h.3v-.2c0-.4.3-.7.6-.8.4,0,.7.3.8.6h0v.3h0c1.3,0,2.3,1.1,2.3,2.3s-.3.7-.6.8-.7-.3-.8-.6h0c0-.6-.4-1-.9-1h0v2.1l.9.3c.9.2,1.5,1.1,1.4,2,0,1.2-.9,2.1-2,2.1h-.3v.2c0,.4-.3.7-.6.8-.4,0-.7-.3-.8-.6h0c0-.1,0-.2,0-.2ZM13,14.6h.3c.4,0,.7-.3.7-.7s-.1-.6-.5-.7l-.5-.2v1.6h0ZM10.8,10.1c0,.5.1.6.5.7l.5.2v-1.6h-.3c-.4,0-.7.3-.7.7h0ZM17,8.1h-.3s-.1,0-.2-.1h0V4c0-.4.3-.7.7-.7s.7.3.7.7v2l3.4-3.5c.3-.2.7-.2,1,0,.2.3.2.6,0,.9l-3.5,3.5h2c.4,0,.7.4.6.8,0,.3-.3.6-.6.6h-3.7v-.2Z"/>
  <g class="st2">
    <g id="Mask_Group_58">
      <rect id="Rectangle_228" class="st1" x="2.3" y="2.1" width="20" height="20"/>
    </g>
  </g>
</svg>