<?xml version="1.0" encoding="UTF-8"?>
<svg id="_圖層_1" data-name="圖層_1" xmlns="http://www.w3.org/2000/svg" version="1.1" viewBox="0 0 24 24">
  <!-- Generator: Adobe Illustrator 29.1.0, SVG Export Plug-In . SVG Version: 2.1.0 Build 142)  -->
  <defs>
    <style>
      .st0 {
        fill: #fff;
      }
    </style>
  </defs>
  <path id="Subtraction_6" class="st0" d="M20.6,23.7c-.7,0-1.4-.3-1.9-.8l-4.1-4.1c-4.8,2.5-10.7.6-13.1-4.1C-1,9.8.8,3.9,5.6,1.5c4.8-2.5,10.7-.6,13.1,4.1,1.5,2.8,1.5,6.2,0,9l4.1,4.1c1,1,1,2.7,0,3.8h0s-.3.3-.3.3c-.5.5-1.2.8-1.9.8ZM10.1,2.3c-4.3,0-7.8,3.5-7.8,7.8,0,4.3,3.5,7.8,7.8,7.8,4.3,0,7.8-3.5,7.8-7.8h0c0-4.3-3.5-7.8-7.8-7.8Z"/>
</svg>