<?xml version="1.0" encoding="UTF-8"?>
<svg id="_圖層_1" data-name="圖層_1" xmlns="http://www.w3.org/2000/svg" version="1.1" viewBox="0 0 24 24">
  <!-- Generator: Adobe Illustrator 29.1.0, SVG Export Plug-In . SVG Version: 2.1.0 Build 142)  -->
  <defs>
    <style>
      .st0 {
        fill: #71c7d5;
      }
    </style>
  </defs>
  <path id="Icon_Wallet-PromoPlan" class="st0" d="M18.7,14.8l-8.7,8.7-2.9-2.9c1-1,1.1-2.6.1-3.7,0,0,0,0-.1-.1-1-1-2.7-1.1-3.8,0,0,0,0,0,0,0l-2.8-3L9.1,5.2l2.4,2.4,1-1-2.4-2.4L13.9.4l2.9,2.9c-1,1-1.1,2.6-.1,3.7,0,0,0,0,.1.1,1,1,2.7,1.1,3.8,0,0,0,0,0,0,0l2.9,2.9-3.8,3.8-2.4-2.4-1,1s2.4,2.4,2.4,2.4ZM12.5,8.6l2.9,2.9,1-1-2.9-2.9-1,1Z"/>
</svg>