<?xml version="1.0" encoding="UTF-8"?>
<svg id="_圖層_1" xmlns="http://www.w3.org/2000/svg" xmlns:xlink="http://www.w3.org/1999/xlink" version="1.1" viewBox="0 0 24 24">
  <!-- Generator: Adobe Illustrator 29.0.1, SVG Export Plug-In . SVG Version: 2.1.0 Build 192)  -->
  <defs>
    <style>
      .st0 {
        fill: none;
      }

      .st1 {
        fill: #e7211a;
      }

      .st2 {
        clip-path: url(#clippath);
      }
    </style>
    <clipPath id="clippath">
      <rect class="st0" x="2.4" y="2.1" width="20" height="20"/>
    </clipPath>
  </defs>
  <g class="st2">
    <g id="Mask_Group_6">
      <path id="Union_8" class="st1" d="M7.4,20.5c-2.7,0-5-2.2-5-5v-6.9c-.2-2.5,1.7-4.7,4.2-4.9h10.6c2.3.2,4.1,2,4.2,4.3,0,.3-.2.5-.4.5h-1.5c-2,0-3.6,1.6-3.5,3.6v.3c.2,1.9,1.8,3.2,3.7,3.2h1.4c.3,0,.5.2.5.5h0c-.2,2.6-2.4,4.5-4.9,4.4H7.4ZM6.8,9.1c0,.4.3.7.8.7h6c.4,0,.8-.3.8-.7s-.3-.8-.7-.8h-6c-.4,0-.7.3-.8.7h0ZM19.5,14.1c-1.1,0-2-.8-2.2-1.9,0-.6.2-1.2.6-1.6s.9-.6,1.4-.6h2.1c.6,0,1,.5,1,1v2c0,.6-.4,1-1,1h-2,.1Z"/>
    </g>
  </g>
</svg>