<?xml version="1.0" encoding="UTF-8"?>
<svg id="_圖層_1" data-name="圖層_1" xmlns="http://www.w3.org/2000/svg" version="1.1" viewBox="0 0 841.9 595.3">
  <!-- Generator: Adobe Illustrator 29.0.1, SVG Export Plug-In . SVG Version: 2.1.0 Build 192)  -->
  <defs>
    <style>
      .st0 {
        fill: #7e191d;
      }

      .st0, .st1 {
        fill-rule: evenodd;
      }

      .st1 {
        fill: #e7211a;
      }
    </style>
  </defs>
  <path id="Path_232" class="st1" d="M421.1,305.3c-.4-.4-.4-1.1,0-1.6,0,0,0,0,0,0l6.1-6.1-6.1-6.1c-.4-.4-.4-1.1,0-1.6.4-.4,1.1-.4,1.6,0l6.9,6.9c.4.4.4,1.1,0,1.6l-6.9,6.9c-.4.4-1.1.4-1.6,0,0,0,0,0,0,0Z"/>
  <path id="Path_235" class="st0" d="M413.1,305.3c-.4-.4-.4-1.1,0-1.6,0,0,0,0,0,0l6.1-6.1-6.1-6.1c-.4-.4-.4-1.1,0-1.6.4-.4,1.1-.4,1.6,0l6.9,6.9c.4.4.4,1.1,0,1.6l-6.9,6.9c-.4.4-1.1.4-1.6,0,0,0,0,0,0,0Z"/>
</svg>