<?xml version="1.0" encoding="UTF-8"?>
<svg id="_圖層_1" data-name="圖層 1" xmlns="http://www.w3.org/2000/svg" viewBox="0 0 24 24">
  <defs>
    <style>
      .cls-1 {
        fill: aqua;
      }
    </style>
  </defs>
  <path id="Path_45" data-name="Path 45" class="cls-1" d="M21.98,12l1.85-2.78c.17-.28.21-.62.11-.93-.09-.31-.34-.56-.65-.65l-3.22-1.31-.27-3.22c0-.31-.15-.61-.38-.82-.27-.19-.61-.25-.93-.16l-3.44.71L12.82.32c-.46-.43-1.18-.43-1.64,0l-2.24,2.51-3.44-.71c-.32-.09-.66-.03-.93.16-.23.21-.37.51-.38.82l-.27,3.22-3.22,1.31c-.31.1-.56.34-.65.65-.1.31-.06.65.11.93l1.85,2.78L.17,14.79c-.31.52-.14,1.19.37,1.5.05.03.11.06.17.08l3.22,1.31.28,3.22c0,.31.15.61.38.82.27.19.61.25.93.16l3.44-.71,2.24,2.46c.4.45,1.09.5,1.54.1.03-.03.07-.06.1-.1l2.24-2.46,3.44.71c.32.09.66.03.93-.16.23-.21.37-.51.38-.82l.27-3.22,3.22-1.31c.56-.22.84-.85.63-1.41-.02-.06-.05-.12-.08-.17l-1.86-2.78ZM8.73,15.88l-2.29-1.75-.6-.49h-.05l.33.76.93,2.18-1.14.44-1.91-4.7,1.14-.44,2.34,1.75.6.49h0c-.09-.24-.2-.48-.33-.71l-.87-2.24,1.14-.49,1.91,4.7-1.2.49ZM10.53,15.17l-1.91-4.75,3.6-1.42.38.98-2.4.93.33.87,2.07-.87.38.93-2.07.82.38,1.04,2.45-.98.38.98-3.6,1.47ZM18.11,12.06l-1.42-2.02-.49-.82h-.05c.09.3.16.61.22.93l.44,2.46-1.15.49-3.22-4.2,1.2-.49,1.25,1.8.71,1.09h0c-.09-.41-.17-.83-.22-1.26l-.38-2.18,1.09-.44,1.25,1.86.65,1.04h0s-.11-.76-.22-1.31l-.33-2.13,1.15-.49.65,5.24-1.14.44Z"/>
</svg>