<?xml version="1.0" encoding="UTF-8"?>
<svg id="_圖層_1" xmlns="http://www.w3.org/2000/svg" xmlns:xlink="http://www.w3.org/1999/xlink" version="1.1" viewBox="0 0 24 24">
  <!-- Generator: Adobe Illustrator 29.0.1, SVG Export Plug-In . SVG Version: 2.1.0 Build 192)  -->
  <defs>
    <style>
      .st0 {
        fill: none;
      }

      .st1 {
        fill: #ae70ac;
      }

      .st2 {
        clip-path: url(#clippath);
      }
    </style>
    <clipPath id="clippath">
      <rect class="st0" x="2.3" y="2.1" width="20" height="20"/>
    </clipPath>
  </defs>
  <g class="st2">
    <g id="Mask_Group_67">
      <path id="address-at-contact-svgrepo-com" class="st1" d="M12.3,2.1C6.8,2.1,2.3,6.6,2.3,12.1s4.5,10,10,10,1.2-.6,1.2-1.2-.6-1.2-1.2-1.2c-4.1,0-7.5-3.4-7.5-7.5s3.4-7.5,7.5-7.5,7.5,3.4,7.5,7.5v3.8c0,.7-.6,1.2-1.2,1.2s-1.2-.6-1.2-1.2v-3.8c0-2.8-2.2-5-5-5s-5,2.2-5,5,2.2,5,5,5,1.8-.3,2.6-.7c.3,2,2.2,3.5,4.2,3.2,1.9-.3,3.2-1.8,3.2-3.7v-3.8c0-5.5-4.5-10-10-10h-.1ZM12.3,14.6c-1.4,0-2.5-1.1-2.5-2.5s1.1-2.5,2.5-2.5,2.5,1.1,2.5,2.5-1.1,2.5-2.5,2.5Z"/>
    </g>
  </g>
</svg>