<?xml version="1.0" encoding="UTF-8"?>
<svg id="_圖層_1" xmlns="http://www.w3.org/2000/svg" xmlns:xlink="http://www.w3.org/1999/xlink" version="1.1" viewBox="0 0 24 24">
  <!-- Generator: Adobe Illustrator 29.0.1, SVG Export Plug-In . SVG Version: 2.1.0 Build 192)  -->
  <defs>
    <style>
      .st0 {
        fill: none;
      }

      .st1 {
        fill: #921d22;
      }

      .st2 {
        clip-path: url(#clippath);
      }
    </style>
    <clipPath id="clippath">
      <rect class="st0" x="1" y="1.5" width="22" height="21.1"/>
    </clipPath>
  </defs>
  <g class="st2">
    <g id="Mask_Group_9">
      <path id="Rectangle_61" class="st1" d="M14.6,2.6c-.1,0-.2,0-.2.2v18.4c0,.1,0,.2.2.2h7c.1,0,.2,0,.2-.2V2.8c0-.1,0-.2-.2-.2h-7M14.6,1.5h7c.7,0,1.4.6,1.4,1.4v18.4c0,.7-.6,1.4-1.4,1.4h-7c-.7,0-1.4-.6-1.4-1.4V2.8c0-.7.6-1.4,1.4-1.4h0Z"/>
      <path id="Union_7" class="st1" d="M2,22.5c-.6,0-1-.5-1-1.1V2.5c0-.6.5-1,1-1.1h12.9c.6,0,1,.5,1,1.1v19c0,.6-.5,1-1,1.1H2ZM6.8,18.5c0,.1,0,.2,0,.4,0,0,.2.2.3.2h2.5c.1,0,.2,0,.3-.2,0,0,.1-.2,0-.4-.1-.5-.2-1-.3-1.6.4.2.8.3,1.3.3.6,0,1.2-.5,1.7-1.2.7-1.1.5-2.3-.6-3.4l-3.2-3.3c-.3-.3-.8-.3-1.1,0l-3.3,3.3c-1,1.1-1.2,2.3-.5,3.4.5.7,1,1.1,1.7,1.2.5,0,.9,0,1.3-.3,0,.5-.2,1.1-.3,1.6h0ZM3.7,3.1l-1.4,4.2c0,.2,0,.4.2.5.2,0,.4,0,.4-.2h0l.4-1.2h1.3l.4,1.2c0,.1.2.2.3.2h.1c.2,0,.3-.3.2-.5l-1.4-4.2c0-.2-.2-.3-.4-.2-.1,0-.2.1-.2.2h0ZM3.6,5.7l.4-1.3.4,1.3h-.9Z"/>
    </g>
  </g>
</svg>