<?xml version="1.0" encoding="UTF-8"?>
<svg id="_圖層_1" data-name="圖層_1" xmlns="http://www.w3.org/2000/svg" version="1.1" viewBox="0 0 841.9 595.3">
  <!-- Generator: Adobe Illustrator 29.0.1, SVG Export Plug-In . SVG Version: 2.1.0 Build 192)  -->
  <defs>
    <style>
      .st0 {
        fill: #e7211a;
      }
    </style>
  </defs>
  <path id="Union_5" class="st0" d="M426.8,309.2h-13.3c-.1,0-.3,0-.4-.1h0s-3.6-3.6-3.6-3.6h0c0,0-.1-.2-.1-.3h0v-10.4h0c0-.5.4-.9.9-.9h0s5.1,0,5.1,0v-5.5h0c0-1.2.9-2.1,2.1-2.2.8,0,1.5.4,1.8,1.1h0s3.6,6.3,3.6,6.3c0,0,.1.1.2.2h3.7s0,0,0,0c.5,0,.9.4.9.9h0v13.5h0c0,.6-.4,1-.9,1,0,0,0,0,0,0ZM410.5,305.1h0s0,0,0,0ZM430.6,307.6h0c-.5,0-.9-.4-.9-.9h0v-10.2h0c0-.5.4-.9.9-.9h0s1.8,0,1.8,0h0c.5,0,.9.4.9.9h0v9.9s0,0,0,.1c0,.5-.4.9-.9.9h-1.8Z"/>
</svg>