<?xml version="1.0" encoding="UTF-8"?>
<svg id="_圖層_1" xmlns="http://www.w3.org/2000/svg" xmlns:xlink="http://www.w3.org/1999/xlink" version="1.1" viewBox="0 0 24 24">
  <!-- Generator: Adobe Illustrator 29.0.1, SVG Export Plug-In . SVG Version: 2.1.0 Build 192)  -->
  <defs>
    <style>
      .st0 {
        fill: none;
      }

      .st1 {
        fill: #921d22;
      }

      .st2 {
        clip-path: url(#clippath);
      }
    </style>
    <clipPath id="clippath">
      <rect class="st0" x="1" y="1" width="22" height="22"/>
    </clipPath>
  </defs>
  <g class="st2">
    <g id="Mask_Group_16">
      <path id="casino-slot-lucky-seven-svgrepo-com" class="st1" d="M22.1,4.3l-2.4-3.1c-.3-.3-.6-.3-.9-.2l-.9.5c-2.2,1.1-4.8,1.3-7.2.6-1-.3-2.1-.4-3.1-.4H2.6c-.4,0-.8.3-.8.7h0v9.2c0,.4.3.8.7.8h3.2c.4,0,.8-.3.8-.7h0c0-1.4,1.1-2.4,2.3-2.4h2.3l-1.2,1.4c-2.8,3.3-4.7,7.1-5.8,11.2,0,.2,0,.4.2.6.2.2.4.3.6.3h10.2c.4,0,.8-.3.8-.7h0c0-4.4,1.2-8.7,3.4-12.4l2.8-4.7c.2-.2.2-.5,0-.9h0Z"/>
    </g>
  </g>
</svg>