<?xml version="1.0" encoding="UTF-8"?>
<svg id="_圖層_1" data-name="圖層_1" xmlns="http://www.w3.org/2000/svg" version="1.1" viewBox="0 0 841.9 595.3">
  <!-- Generator: Adobe Illustrator 29.0.1, SVG Export Plug-In . SVG Version: 2.1.0 Build 192)  -->
  <defs>
    <style>
      .st0 {
        fill: #72c8d5;
      }
    </style>
  </defs>
  <path id="Path_45" class="st0" d="M431.3,297.7l1.9-2.8c.2-.3.2-.6.1-.9,0-.3-.3-.6-.7-.7l-3.2-1.3-.3-3.2c0-.3-.1-.6-.4-.8-.3-.2-.6-.3-.9-.2l-3.4.7-2.2-2.5c-.5-.4-1.2-.4-1.6,0l-2.2,2.5-3.4-.7c-.3,0-.7,0-.9.2-.2.2-.4.5-.4.8l-.3,3.2-3.2,1.3c-.3,0-.6.3-.7.7-.1.3,0,.7.1.9l1.9,2.8-1.9,2.8c-.3.5-.1,1.2.4,1.5,0,0,.1,0,.2,0l3.2,1.3.3,3.2c0,.3.1.6.4.8.3.2.6.3.9.2l3.4-.7,2.2,2.5c.4.5,1.1.5,1.5,0,0,0,0,0,0,0l2.2-2.5,3.4.7c.3,0,.7,0,.9-.2.2-.2.4-.5.4-.8l.3-3.2,3.2-1.3c.6-.2.8-.8.6-1.4,0,0,0-.1,0-.2l-1.9-2.8ZM418.1,301.5l-2.3-1.7-.6-.5h0l.3.8.9,2.2-1.1.4-1.9-4.7,1.1-.4,2.3,1.7.6.5h0c0-.2-.2-.5-.3-.7l-.9-2.2,1.1-.5,1.9,4.7-1.2.5ZM419.9,300.8l-1.9-4.7,3.6-1.4.4,1-2.4.9.3.9,2.1-.9.4.9-2.1.8.4,1,2.5-1,.4,1-3.6,1.5ZM427.4,297.7l-1.4-2-.5-.8h0c0,.3.2.6.2.9l.4,2.5-1.1.5-3.2-4.2,1.2-.5,1.3,1.8.7,1.1h0c0-.4-.2-.8-.2-1.3l-.4-2.2,1.1-.4,1.3,1.9.7,1h0s-.1-.8-.2-1.3l-.3-2.1,1.1-.5.7,5.2-1.1.4Z"/>
</svg>