<?xml version="1.0" encoding="UTF-8"?>
<svg id="_圖層_1" data-name="圖層_1" xmlns="http://www.w3.org/2000/svg" version="1.1" viewBox="0 0 841.9 595.3">
  <!-- Generator: Adobe Illustrator 29.0.1, SVG Export Plug-In . SVG Version: 2.1.0 Build 192)  -->
  <defs>
    <style>
      .st0 {
        fill: #efea3c;
        fill-rule: evenodd;
      }
    </style>
  </defs>
  <path id="GamePad" class="st0" d="M409.3,305.2l4.5,1.5,4.5-4.5h6l4.5,4.5,4.5-1.5-1.1-12.4c-.2-2.3-2.2-4.1-4.5-4.1h-12.8c-2.3,0-4.3,1.8-4.5,4.1l-1.1,12.4ZM427.3,294.7c.8,0,1.5-.7,1.5-1.5s-.7-1.5-1.5-1.5-1.5.7-1.5,1.5.7,1.5,1.5,1.5ZM427.3,297.7c0,.8-.7,1.5-1.5,1.5s-1.5-.7-1.5-1.5.7-1.5,1.5-1.5,1.5.7,1.5,1.5ZM416.8,297.7c1.7,0,3-1.3,3-3s-1.3-3-3-3-3,1.3-3,3,1.3,3,3,3Z"/>
</svg>