<?xml version="1.0" encoding="UTF-8"?>
<svg id="_圖層_1" xmlns="http://www.w3.org/2000/svg" xmlns:xlink="http://www.w3.org/1999/xlink" version="1.1" viewBox="0 0 24 24">
  <!-- Generator: Adobe Illustrator 29.0.1, SVG Export Plug-In . SVG Version: 2.1.0 Build 192)  -->
  <defs>
    <style>
      .st0 {
        fill: none;
      }

      .st1 {
        fill: #921d22;
      }

      .st2 {
        clip-path: url(#clippath);
      }
    </style>
    <clipPath id="clippath">
      <path class="st0" d="M4.8,20.3l7.2-7.2,2.5,2.5c-1.8,2-2.7,4.6-2.7,7.2v.3c-2.6,0-5.1-1-7-2.7h0ZM13.2,22.7c0-2.3.8-4.5,2.3-6.2l3.7,3.7c-1.7,1.5-3.8,2.4-6,2.7v-.2ZM16.5,15.5c1.7-1.5,3.9-2.3,6.2-2.3h.2c-.3,2.2-1.2,4.3-2.7,6l-3.7-3.7ZM1,12.2h.3c2.7,0,5.2-1,7.2-2.7l2.5,2.5-7.2,7.2c-1.7-1.9-2.7-4.4-2.7-7h0ZM13,12l7.2-7.2c1.7,1.9,2.7,4.4,2.7,7h-.3c-2.7,0-5.2,1-7.2,2.7l-2.5-2.5h0ZM9.5,8.5c1.8-2,2.7-4.6,2.7-7.2v-.3c2.6,0,5.1,1,7,2.7l-7.2,7.2-2.5-2.5h0ZM1.1,10.8c.3-2.2,1.2-4.3,2.7-6l3.7,3.7c-1.7,1.5-3.9,2.3-6.2,2.3h-.2ZM4.8,3.7c1.7-1.5,3.8-2.4,6-2.7v.2c0,2.3-.8,4.5-2.3,6.2l-3.7-3.7Z"/>
    </clipPath>
  </defs>
  <g class="st2">
    <g id="Mask_Group_14">
      <rect id="Rectangle_65" class="st1" x="1" y="1" width="22" height="22"/>
    </g>
  </g>
</svg>