<?xml version="1.0" encoding="UTF-8"?>
<svg id="_圖層_1" data-name="圖層_1" xmlns="http://www.w3.org/2000/svg" version="1.1" viewBox="0 0 841.9 595.3">
  <!-- Generator: Adobe Illustrator 29.0.1, SVG Export Plug-In . SVG Version: 2.1.0 Build 192)  -->
  <defs>
    <style>
      .st0 {
        fill: #bd192f;
      }

      .st1 {
        fill: #fff;
      }

      .st2 {
        fill: #1b2c57;
      }
    </style>
  </defs>
  <g id="gb">
    <path id="Path_11" class="st2" d="M411.3,289.7h20v16h-20v-16Z"/>
    <path id="Path_12" class="st1" d="M413.7,289.7l7.6,6,7.6-6h2.4v2.1l-7.5,6,7.5,5.9v2h-2.5l-7.5-6-7.5,6h-2.5v-2l7.5-5.9-7.5-5.9v-2.1h2.3Z"/>
    <path id="Path_13" class="st0" d="M424.6,299l6.8,5.3v1.3l-8.5-6.6h1.7ZM418.8,299.7l.2,1.2-6,4.8h-1.7l7.5-6ZM431.3,289.7h0c0,.1-7.8,6.4-7.8,6.4v-1.5c0,0,6.2-4.9,6.2-4.9h1.6ZM411.3,289.7l7.5,5.9h-1.9l-5.6-4.5v-1.4Z"/>
    <path id="Path_14" class="st1" d="M418.9,289.7v16h5v-16h-5ZM411.3,295v5.3h20v-5.3h-20Z"/>
    <path id="Path_15" class="st0" d="M411.3,296.1v3.2h20v-3.2h-20ZM419.9,289.7v16h3v-16h-3Z"/>
  </g>
</svg>