<?xml version="1.0" encoding="UTF-8"?>
<svg id="_圖層_1" xmlns="http://www.w3.org/2000/svg" version="1.1" viewBox="0 0 24 24">
  <!-- Generator: Adobe Illustrator 29.0.1, SVG Export Plug-In . SVG Version: 2.1.0 Build 192)  -->
  <defs>
    <style>
      .st0 {
        fill: #fff;
        fill-rule: evenodd;
      }
    </style>
  </defs>
  <path id="Path_30" class="st0" d="M10.3,2.3c1-.4,2.1-.4,3.1,0,2.7,1.3,5.1,3,7.3,5.1.7.7,1,1.5,1.1,2.5,0,1.1.1,3,.1,5v3.9c0,1.7-1.4,3-3.1,3.1-1.5,0-3.8.1-6.8.1s-5.3,0-6.8-.1c-1.7,0-3-1.4-3.1-3.1v-3.9c0-2.1,0-3.9.1-5,0-.9.4-1.8,1.1-2.5,2.1-2.1,4.6-3.8,7.3-5.1h-.3ZM8.3,17.2c-.5,0-.9.4-.9.9s.4.9.9.9h7.1c.5,0,.9-.4.9-.9s-.4-.9-.9-.9h-7.1Z"/>
</svg>