<?xml version="1.0" encoding="UTF-8"?>
<svg id="_圖層_1" xmlns="http://www.w3.org/2000/svg" version="1.1" viewBox="0 0 24 24">
  <!-- Generator: Adobe Illustrator 29.0.1, SVG Export Plug-In . SVG Version: 2.1.0 Build 192)  -->
  <defs>
    <style>
      .st0 {
        fill: #d4124f;
      }
    </style>
  </defs>
  <path id="Union_15" class="st0" d="M3.9,22c-1.1,0-2-.9-2-2v-5.3c0-1.1.9-2,2-2h5.3c1.1,0,2,.9,2,2v5.3c0,1.1-.9,2-2,2H3.9ZM20.8,21.8l-1.9-1.9c-.8.6-1.8.8-2.8.7-1-.1-1.9-.6-2.6-1.4s-1-1.8-.9-2.8c0-1,.5-2,1.2-2.7s1.7-1.1,2.7-1.2c1,0,2,.3,2.8.9.8.7,1.3,1.6,1.4,2.6s-.1,2-.7,2.8l1.9,1.9c.1.1.2.3.2.5s0,.3-.2.5-.3.2-.5.2h0c-.2,0-.3,0-.5-.2h-.1ZM16.1,14c-.5.1-1,.4-1.4.7-.4.4-.6.8-.7,1.4-.1.5,0,1.1.2,1.5.2.5.5.9,1,1.2.4.3,1,.4,1.5.4s1.4-.3,1.9-.8.8-1.2.8-1.9-.2-1-.4-1.5c-.3-.4-.7-.8-1.2-1-.3-.1-.7-.2-1-.2h-.5l-.2.2ZM14.6,11.3c-1.1,0-2-.9-2-2v-5.3c0-1.1.9-2,2-2h5.3c1.1,0,2,.9,2,2v5.3c0,1.1-.9,2-2,2h-5.3ZM3.9,11.3c-1.1,0-2-.9-2-2v-5.3c0-1.1.9-2,2-2h5.3c1.1,0,2,.9,2,2v5.3c0,1.1-.9,2-2,2H3.9Z"/>
</svg>