<?xml version="1.0" encoding="UTF-8"?>
<svg id="_圖層_1" xmlns="http://www.w3.org/2000/svg" version="1.1" viewBox="0 0 24 24">
  <!-- Generator: Adobe Illustrator 29.0.1, SVG Export Plug-In . SVG Version: 2.1.0 Build 192)  -->
  <defs>
    <style>
      .st0 {
        fill: #fff;
      }
    </style>
  </defs>
  <path id="Union_14" class="st0" d="M7,21c-2.8,0-5-2.4-5-5.3v-7.4c0-2.9,1.6-4.9,4.2-5.2h10.6c2.4.3,4,2.1,4.2,4.6,0,.3-.2.5-.5.5h-1.5c-1,0-1.9.5-2.5,1.1-.8.8-1.2,1.9-1.1,3,0,1.8,1.6,3.3,3.7,3.4h1.4c.3,0,.5.3.5.5h0c-.2,2.8-2.2,4.7-5,4.7H7ZM6.3,8.7c0,.4.3.7.8.8h6c.4,0,.8-.4.8-.8s-.3-.7-.8-.8h-6c-.4,0-.8.4-.8.8ZM19.1,14.1c-1.2,0-2.1-.9-2.2-2,0-.6.2-1.3.6-1.7.3-.4.9-.6,1.4-.6h2.1c.6,0,1,.5,1,1.1v2.2c0,.5-.4,1-1,1.1h-2,.1Z"/>
</svg>