<?xml version="1.0" encoding="UTF-8"?>
<svg id="Done" xmlns="http://www.w3.org/2000/svg" version="1.1" viewBox="0 0 141.7 141.7">
  <!-- Generator: Adobe Illustrator 29.3.1, SVG Export Plug-In . SVG Version: 2.1.0 Build 151)  -->
  <defs>
    <style>
      .st0 {
        fill-rule: evenodd;
      }

      .st0, .st1 {
        fill: #f51111;
      }
    </style>
  </defs>
  <path class="st0" d="M105.4,38l7-17.8s-24.6,9.2-39,9.2-26.2-4.4-26.2-4.4l2.4-6.4h-20.1s3.2,16.4,8.7,23.5c8.5,11,16.8,14,16.8,14l5.4-3.8s-4.4.1-4.7-5.1c-.1-2.6-1.4-8.4,8.3-8.5,9.7-.2,13.6.5,13.9,4.4.3,3.9-7,9.9-16,22.8-11.2,16-16.9,34.6-16.9,34.6h50.1s-9.6-11.4-9.6-30.5,19.9-32,19.9-32ZM94.3,60.3c-4.6,6.6-2.9,20.4-2.9,20.4,0,0,.9-4.3,6.3-7.1,5.9-3,6.5.2,16.5-6.6,9.9-6.8,10.6-33.9,10.6-33.9,0,0-3.4,8.4-10.2,13.8-5.1,4.1-15.6,6.8-20.2,13.4ZM27.4,67c9.9,6.8,10.6,3.5,16.5,6.6,5.4,2.8,6.3,7.1,6.3,7.1,0,0,1.7-13.8-2.9-20.4-4.6-6.6-15.1-9.4-20.2-13.4-6.8-5.4-10.2-13.8-10.2-13.8,0,0,.7,27.1,10.6,33.9ZM49.7,84.5s-2.7-6.7-6.5-8.5c-3.8-1.8-9.2-.4-12.6-1-4.4-.7-8.1-3.7-8.1-3.7,0,0,7.1,12.1,13.4,12.7,6.2.6,5.7-1.1,9.1-1.2,3.2,0,4.7,1.6,4.7,1.6ZM98.2,76c-3.8,1.8-6.5,8.5-6.5,8.5,0,0,1.5-1.7,4.7-1.6,3.4.1,2.9,1.7,9.1,1.2,6.2-.6,13.4-12.7,13.4-12.7,0,0-3.7,2.9-8.1,3.7-3.4.5-8.8-.8-12.6,1Z"/>
  <path class="st1" d="M50.8,123.6h19.4v-3.1h-19.4v3.1ZM42.7,115.3h4.9v-2.9h-15.2v2.9h5v5.4h-5.6v2.8h16.6v-2.8h-5.7v-5.4ZM10.8,113.5h12.7l-4.5,7.4h-8.8l2.1,3.1h11.3l6.4-10.5v-3H10.8v3.1ZM69.3,110.4h-17.7v3.1h17.7v-3.1ZM77.6,118.6l-1.9-6.4h-5l2,6.4h5ZM124.7,116.9h-.6l4-4v-2.5h-16.6v3h8.7l-10.8,10.5h7.3l4-3.8,4,3.8h7.4l-7.4-7.1ZM84.3,112.2l-1.3,2.9-1-2.9h-5l2,6.4h2.4l-1.2,2.5h-8.6l2.4,2.9h10.2l5.3-11.7h-5.3ZM109.8,112.1h-9.2l1.7-2.1h-6.8l-6.7,8.3h6.8l2.6-3.2h4.7l-4.7,5.7h-8.7l2.7,3h10.6l7.2-8.7v-3.1Z"/>
</svg>